<?xml version="1.0" encoding="utf-8"?>
<!-- Generator: Adobe Illustrator 21.1.0, SVG Export Plug-In . SVG Version: 6.00 Build 0)  -->
<svg version="1.1" id="Layer_1" xmlns="http://www.w3.org/2000/svg" xmlns:xlink="http://www.w3.org/1999/xlink" x="0px" y="0px"
	 viewBox="0 0 77.5 53.5" style="enable-background:new 0 0 77.5 53.5;" xml:space="preserve">
<style type="text/css">
	.st0{fill:#79589F;}
</style>
<g>
	<path class="st0" d="M31.2,3.7H46c1.9,0,3.5,1.6,3.5,3.5v14.9c0,1.9-1.6,3.5-3.5,3.5H31.2c-1.9,0-3.5-1.6-3.5-3.5V7.2
		C27.7,5.3,29.3,3.7,31.2,3.7z M46,24.6c1.4,0,2.5-1.1,2.5-2.5V7.2c0-1.4-1.1-2.5-2.5-2.5H31.2c-1.4,0-2.5,1.1-2.5,2.5v14.9
		c0,1.4,1.1,2.5,2.5,2.5H46z"/>
	<path class="st0" d="M37.5,16.1c-0.5,0-0.8-0.4-0.6-0.9l1.3-2.8c0.2-0.5,0.6-0.5,0.8,0l1.3,2.8c0.2,0.5,0,0.9-0.6,0.9H37.5z"/>
</g>
<g>
	<path class="st0" d="M46,49.6H31.2c-1.9,0-3.5-1.6-3.5-3.5V31.2c0-1.9,1.6-3.5,3.5-3.5H46c1.9,0,3.5,1.6,3.5,3.5v14.9
		C49.5,48,48,49.6,46,49.6z M31.2,28.7c-1.4,0-2.5,1.1-2.5,2.5v14.9c0,1.4,1.1,2.5,2.5,2.5H46c1.4,0,2.5-1.1,2.5-2.5V31.2
		c0-1.4-1.1-2.5-2.5-2.5H31.2z"/>
	<path class="st0" d="M39.8,37.2c0.5,0,0.8,0.4,0.6,0.9L39,40.9c-0.2,0.5-0.6,0.5-0.8,0l-1.3-2.8c-0.2-0.5,0-0.9,0.6-0.9H39.8z"/>
</g>
<path class="st0" d="M21.9,27.4H7c-1.9,0-3.5,1.6-3.5,3.5v14.9c0,1.9,1.6,3.5,3.5,3.5h14.9c1.9,0,3.5-1.6,3.5-3.5V30.9
	C25.4,29,23.8,27.4,21.9,27.4z M16.1,39.5c0,0.5-0.4,0.8-0.9,0.6l-2.8-1.3c-0.5-0.2-0.5-0.6,0-0.8l2.8-1.3c0.5-0.2,0.9,0,0.9,0.6
	V39.5z"/>
<path class="st0" d="M70.2,27.4H55.4c-1.9,0-3.5,1.6-3.5,3.5v14.9c0,1.9,1.6,3.5,3.5,3.5h14.9c1.9,0,3.5-1.6,3.5-3.5V30.9
	C73.7,29,72.1,27.4,70.2,27.4z M64.8,38.7L62,40c-0.5,0.2-0.9,0-0.9-0.6v-2.3c0-0.5,0.4-0.8,0.9-0.6l2.8,1.3
	C65.3,38.1,65.3,38.5,64.8,38.7z"/>
</svg>
