<?xml version="1.0" encoding="utf-8"?>
<!-- Generator: Adobe Illustrator 21.1.0, SVG Export Plug-In . SVG Version: 6.00 Build 0)  -->
<svg version="1.1" id="Layer_1" xmlns="http://www.w3.org/2000/svg" xmlns:xlink="http://www.w3.org/1999/xlink" x="0px" y="0px"
	 viewBox="0 0 468 63" style="enable-background:new 0 0 468 63;" xml:space="preserve">
<style type="text/css">
	.st0{fill:#FFFFFF;}
	.st1{fill:none;stroke:#FFFFFF;stroke-width:2;stroke-miterlimit:10;}
</style>
<g>
	<path class="st0" d="M9,43.3c0-1.4,0.4-2.4,1.2-3c0.8-0.6,1.6-0.9,2.4-0.9h4.2c2.1,0,3.7,1.1,4.8,3.4c1.1,2.3,3.6,3.4,7.4,3.4
		l12.3,0.2c4.1,0,6.2-1.3,6.2-4c0-2-2.5-3.6-7.6-4.8c-2.2-0.5-4.7-1.1-7.5-1.6c-2.7-0.5-5.4-1.2-8.1-2c-2.7-0.8-5.2-1.7-7.4-2.8
		c-2.2-1.1-4.1-2.6-5.5-4.4c-1.4-1.9-2.1-4.1-2.1-6.7c0-4.7,1.7-8.3,5-10.9c3.4-2.5,9.1-3.8,17.3-3.8l8.9,0.2c4.8,0,9.1,1.2,13,3.7
		c3.9,2.5,5.8,5.6,5.8,9.3c0,1.4-0.4,2.4-1.2,3c-0.8,0.6-1.6,0.9-2.4,0.9h-4.2c-2.1,0-3.7-1.2-4.8-3.5c-1.1-2.3-3.6-3.5-7.4-3.5
		l-10.6-0.2c-4.1,0-6.2,1.3-6.2,4c0,1.5,1.3,2.7,3.9,3.6c2.6,0.9,5.8,1.8,9.5,2.5c3.7,0.7,7.4,1.6,11.2,2.6c3.7,1,6.9,2.7,9.5,5
		c2.6,2.3,3.9,5.2,3.9,8.6c0,4.7-1.7,8.3-5,10.9c-3.4,2.5-9.1,3.8-17.3,3.8l-10.7-0.2c-4.8,0-9.1-1.2-13-3.7C10.9,50.1,9,47,9,43.3z
		"/>
	<path class="st0" d="M65.9,54V19.8c0-0.6,0.2-1.2,0.6-1.6c0.4-0.4,0.9-0.6,1.5-0.6h7.9c0.6,0,1.1,0.2,1.5,0.6
		c0.4,0.4,0.6,0.9,0.6,1.6V22c1.7-1.6,3.3-2.9,5-3.8c1.6-0.9,3.6-1.3,5.9-1.3c5.5,0,9.6,2.2,12.4,6.8c4.4-4.5,8.8-6.8,13.4-6.8
		c4.6,0,8.2,1.4,10.9,4.1c2.7,2.8,4,7,4,12.8V54c0,0.6-0.2,1.1-0.6,1.5c-0.4,0.4-0.9,0.6-1.5,0.6h-7.8c-0.6,0-1.2-0.2-1.6-0.6
		c-0.4-0.4-0.6-0.9-0.6-1.5V33.9c0-5.6-2-8.4-6.1-8.4c-2.5,0-5.1,1.8-7.7,5.4c0.1,1,0.2,2,0.2,3V54c0,0.6-0.2,1.1-0.6,1.5
		c-0.4,0.4-0.9,0.6-1.5,0.6h-7.8c-0.6,0-1.2-0.2-1.6-0.6c-0.4-0.4-0.6-0.9-0.6-1.5V33.9c0-5.6-2-8.4-6.1-8.4c-2.6,0-5.1,1.7-7.5,5
		V54c0,0.6-0.2,1.1-0.6,1.5c-0.4,0.4-0.9,0.6-1.5,0.6H68c-0.6,0-1.1-0.2-1.5-0.6C66.1,55.2,65.9,54.7,65.9,54z"/>
	<path class="st0" d="M138.9,53.7c-3.1-2.2-4.7-5.2-4.7-9.1s1.6-7,4.7-9.1c3.1-2.1,7.1-3.2,12-3.2h11.6c0-2.7-0.6-4.7-1.7-5.7
		c-1.1-1.1-3.2-1.6-6-1.6c-2.9,0-4.9,0.7-6,2.1c-1.2,1.4-2.6,2.1-4.3,2.1h-5.2c-0.6,0-1.2-0.2-1.6-0.6c-0.4-0.4-0.6-0.9-0.6-1.5
		c0-6.7,6.4-10.1,19.2-10.1c5.6,0,10.1,1.2,13.4,3.7s5.1,6.4,5.1,11.6V54c0,0.6-0.2,1.1-0.6,1.5c-0.4,0.4-0.9,0.6-1.5,0.6h-6.8
		c-0.6,0-1.1-0.2-1.5-0.6c-0.4-0.4-0.6-0.9-0.6-1.5V53c-3.7,2.6-8,4-12.8,4C145.9,56.9,142,55.8,138.9,53.7z M147.8,41.5
		c-0.9,0.8-1.4,1.8-1.4,3.1s0.5,2.3,1.5,3.1c1,0.8,2.4,1.2,4.2,1.2c3.6,0,7.1-1.1,10.4-3.2v-5.5h-10.8
		C150.1,40.3,148.8,40.7,147.8,41.5z"/>
	<path class="st0" d="M208.3,26.6l-5.4-0.2c-3.2,0-6.2,1.7-9.1,5.2V54c0,0.6-0.2,1.1-0.6,1.5c-0.4,0.4-0.9,0.6-1.5,0.6h-7.9
		c-0.6,0-1.1-0.2-1.5-0.6c-0.4-0.4-0.6-0.9-0.6-1.5V19.8c0-0.6,0.2-1.2,0.6-1.6c0.4-0.4,0.9-0.6,1.5-0.6h7.9c0.6,0,1.1,0.2,1.5,0.6
		c0.4,0.4,0.6,0.9,0.6,1.6V22c2.4-1.7,4.7-3,6.9-3.8c2.2-0.8,5.1-1.2,8.7-1.2c0.6,0,1.2,0.2,1.6,0.6c0.4,0.4,0.6,0.9,0.6,1.5v5.3
		c0,0.6-0.2,1.1-0.6,1.5c-0.4,0.4-0.9,0.6-1.6,0.6H208.3z"/>
	<path class="st0" d="M233.4,48.6l4.8-0.4h1.3c0.6,0,1.2,0.2,1.6,0.6c0.4,0.4,0.6,0.9,0.6,1.5V54c0,0.5-0.2,1-0.6,1.4
		c-0.4,0.4-0.9,0.7-1.6,0.8c-2.4,0.5-5.5,0.7-9.4,0.7c-10.1,0-15.1-5.3-15.1-15.8V8c0-0.6,0.2-1.2,0.6-1.6c0.4-0.4,0.9-0.6,1.5-0.6
		h7.9c0.6,0,1.1,0.2,1.5,0.6c0.4,0.4,0.6,0.9,0.6,1.6v11.7h9.8c0.6,0,1.1,0.2,1.5,0.6c0.4,0.4,0.6,0.9,0.6,1.5V26
		c0,0.6-0.2,1.1-0.6,1.5c-0.4,0.4-0.9,0.6-1.5,0.6h-9.8v12.9c0,2.4,0.6,4.2,1.7,5.5S231.6,48.6,233.4,48.6z"/>
	<path class="st1" d="M249.8,50.2c-4.3-4.1-6.5-10.6-6.5-19.2s2.2-15.1,6.5-19.3c4.3-4.2,10.9-6.2,19.6-6.2h7.8
		c5.3,0,10,1.4,14.1,4.1c4.1,2.8,6.1,6.6,6.1,11.4c0,1.4-0.4,2.4-1.2,3c-0.8,0.6-1.6,0.9-2.4,0.9h-4.2c-2.2,0-3.8-1.3-5-3.9
		c-1.7-3.7-4.6-5.6-8.6-5.6h-6.3c-5.1,0-8.6,1.1-10.4,3.3c-1.8,2.2-2.7,6.3-2.7,12.2c0,6,0.9,10,2.7,12.3s5.3,3.3,10.4,3.3h7
		c4,0,6.9-1.9,8.6-5.6c1.2-2.6,2.9-3.9,5.1-3.9h4.2c1.1,0,2,0.4,2.6,1.2c0.6,0.8,1,1.7,1,2.7c0,4.8-2,8.6-6.1,11.3
		c-4.1,2.8-8.8,4.1-14.1,4.1h-8.6C260.7,56.5,254.2,54.4,249.8,50.2z"/>
	<path class="st1" d="M303.2,54V8c0-0.6,0.2-1.2,0.6-1.6c0.4-0.4,0.9-0.6,1.5-0.6h7.9c0.6,0,1.1,0.2,1.5,0.6
		c0.4,0.4,0.6,0.9,0.6,1.6V22c4-3.4,8.3-5.1,12.9-5.1c4.6,0,8.3,1.4,11.1,4.2c2.9,2.8,4.3,7,4.3,12.7V54c0,0.6-0.2,1.1-0.6,1.5
		c-0.4,0.4-0.9,0.6-1.6,0.6h-7.8c-0.6,0-1.1-0.2-1.5-0.6c-0.4-0.4-0.6-0.9-0.6-1.5V33.9c0-5.6-2.2-8.4-6.7-8.4c-2.9,0-6.1,1.7-9.4,5
		V54c0,0.6-0.2,1.1-0.6,1.5c-0.4,0.4-0.9,0.6-1.5,0.6h-7.9c-0.6,0-1.1-0.2-1.5-0.6C303.4,55.2,303.2,54.7,303.2,54z"/>
	<path class="st1" d="M353,53.7c-3.1-2.2-4.7-5.2-4.7-9.1s1.6-7,4.7-9.1c3.1-2.1,7.1-3.2,12-3.2h11.6c0-2.7-0.6-4.7-1.7-5.7
		c-1.1-1.1-3.2-1.6-6-1.6c-2.9,0-4.9,0.7-6,2.1c-1.2,1.4-2.6,2.1-4.3,2.1h-5.2c-0.6,0-1.2-0.2-1.6-0.6c-0.4-0.4-0.6-0.9-0.6-1.5
		c0-6.7,6.4-10.1,19.2-10.1c5.6,0,10.1,1.2,13.4,3.7c3.4,2.5,5.1,6.4,5.1,11.6V54c0,0.6-0.2,1.1-0.6,1.5c-0.4,0.4-0.9,0.6-1.5,0.6
		h-6.8c-0.6,0-1.1-0.2-1.5-0.6c-0.4-0.4-0.6-0.9-0.6-1.5V53c-3.7,2.6-8,4-12.8,4C360.1,56.9,356.1,55.8,353,53.7z M362,41.5
		c-0.9,0.8-1.4,1.8-1.4,3.1s0.5,2.3,1.5,3.1c1,0.8,2.4,1.2,4.2,1.2c3.6,0,7.1-1.1,10.4-3.2v-5.5h-10.8
		C364.2,40.3,362.9,40.7,362,41.5z"/>
	<path class="st1" d="M422.5,26.6l-5.4-0.2c-3.2,0-6.2,1.7-9.1,5.2V54c0,0.6-0.2,1.1-0.6,1.5c-0.4,0.4-0.9,0.6-1.5,0.6H398
		c-0.6,0-1.1-0.2-1.5-0.6c-0.4-0.4-0.6-0.9-0.6-1.5V19.8c0-0.6,0.2-1.2,0.6-1.6c0.4-0.4,0.9-0.6,1.5-0.6h7.9c0.6,0,1.1,0.2,1.5,0.6
		c0.4,0.4,0.6,0.9,0.6,1.6V22c2.4-1.7,4.7-3,6.9-3.8c2.2-0.8,5.1-1.2,8.7-1.2c0.6,0,1.2,0.2,1.6,0.6c0.4,0.4,0.6,0.9,0.6,1.5v5.3
		c0,0.6-0.2,1.1-0.6,1.5c-0.4,0.4-0.9,0.6-1.6,0.6H422.5z"/>
	<path class="st1" d="M447.6,48.6l4.8-0.4h1.3c0.6,0,1.2,0.2,1.6,0.6c0.4,0.4,0.6,0.9,0.6,1.5V54c0,0.5-0.2,1-0.6,1.4
		c-0.4,0.4-0.9,0.7-1.6,0.8c-2.4,0.5-5.5,0.7-9.4,0.7c-10.1,0-15.1-5.3-15.1-15.8V8c0-0.6,0.2-1.2,0.6-1.6c0.4-0.4,0.9-0.6,1.5-0.6
		h7.9c0.6,0,1.1,0.2,1.5,0.6c0.4,0.4,0.6,0.9,0.6,1.6v11.7h9.8c0.6,0,1.1,0.2,1.5,0.6c0.4,0.4,0.6,0.9,0.6,1.5V26
		c0,0.6-0.2,1.1-0.6,1.5c-0.4,0.4-0.9,0.6-1.5,0.6h-9.8v12.9c0,2.4,0.6,4.2,1.7,5.5S445.7,48.6,447.6,48.6z"/>
</g>
</svg>
