<?xml version="1.0" encoding="utf-8"?>
<!-- Generator: Adobe Illustrator 21.1.0, SVG Export Plug-In . SVG Version: 6.00 Build 0)  -->
<svg version="1.1" id="Layer_1" xmlns="http://www.w3.org/2000/svg" xmlns:xlink="http://www.w3.org/1999/xlink" x="0px" y="0px"
	 viewBox="0 0 77.5 53.5" style="enable-background:new 0 0 77.5 53.5;" xml:space="preserve">
<style type="text/css">
	.st0{fill:#79589F;}
</style>
<g>
	<path class="st0" d="M73.5,31.2v14.9c0,1.9-1.6,3.5-3.5,3.5H55.2c-1.9,0-3.5-1.6-3.5-3.5V31.2c0-1.9,1.6-3.5,3.5-3.5H70
		C72,27.7,73.5,29.3,73.5,31.2z M52.7,46.1c0,1.4,1.1,2.5,2.5,2.5H70c1.4,0,2.5-1.1,2.5-2.5V31.2c0-1.4-1.1-2.5-2.5-2.5H55.2
		c-1.4,0-2.5,1.1-2.5,2.5V46.1z"/>
	<path class="st0" d="M61.1,37.5c0-0.6,0.4-0.8,0.9-0.6l2.8,1.3c0.5,0.2,0.5,0.6,0,0.8l-2.8,1.3c-0.5,0.2-0.9,0-0.9-0.6V37.5z"/>
</g>
<g>
	<path class="st0" d="M3.7,46.1V31.2c0-1.9,1.6-3.5,3.5-3.5H22c1.9,0,3.5,1.6,3.5,3.5v14.9c0,1.9-1.6,3.5-3.5,3.5H7.2
		C5.3,49.6,3.7,48,3.7,46.1z M24.5,31.2c0-1.4-1.1-2.5-2.5-2.5H7.2c-1.4,0-2.5,1.1-2.5,2.5v14.9c0,1.4,1.1,2.5,2.5,2.5H22
		c1.4,0,2.5-1.1,2.5-2.5V31.2z"/>
	<path class="st0" d="M16.1,39.8c0,0.5-0.4,0.8-0.9,0.6l-2.8-1.3c-0.5-0.2-0.5-0.6,0-0.8l2.8-1.3c0.5-0.2,0.9,0,0.9,0.6V39.8z"/>
</g>
<path class="st0" d="M49.4,21.8V6.9c0-1.9-1.6-3.5-3.5-3.5H31c-1.9,0-3.5,1.6-3.5,3.5v14.9c0,1.9,1.6,3.5,3.5,3.5h14.9
	C47.8,25.2,49.4,23.7,49.4,21.8z M37.3,16c-0.5,0-0.8-0.4-0.6-0.9l1.3-2.8c0.2-0.5,0.6-0.5,0.8,0l1.3,2.8c0.2,0.5,0,0.9-0.6,0.9
	H37.3z"/>
<path class="st0" d="M49.7,45.8V30.9c0-1.9-1.6-3.5-3.5-3.5H31.4c-1.9,0-3.5,1.6-3.5,3.5v14.9c0,1.9,1.6,3.5,3.5,3.5h14.9
	C48.1,49.2,49.7,47.7,49.7,45.8z M38.4,40.4l-1.3-2.8c-0.2-0.5,0-0.9,0.6-0.9h2.3c0.5,0,0.8,0.4,0.6,0.9l-1.3,2.8
	C39,40.9,38.6,40.9,38.4,40.4z"/>
</svg>
